<?xml version="1.0" encoding="UTF-8" standalone="no"?>
<!-- Generator: Adobe Illustrator 16.0.0, SVG Export Plug-In . SVG Version: 6.00 Build 0)  -->

<svg
   xmlns:dc="http://purl.org/dc/elements/1.1/"
   xmlns:cc="http://creativecommons.org/ns#"
   xmlns:rdf="http://www.w3.org/1999/02/22-rdf-syntax-ns#"
   xmlns:svg="http://www.w3.org/2000/svg"
   xmlns="http://www.w3.org/2000/svg"
   xmlns:sodipodi="http://sodipodi.sourceforge.net/DTD/sodipodi-0.dtd"
   xmlns:inkscape="http://www.inkscape.org/namespaces/inkscape"
   version="1.1"
   id="Capa_1"
   x="0px"
   y="0px"
   width="441.72208"
   height="423.45285"
   viewBox="0 0 441.72208 423.45286"
   xml:space="preserve"
   inkscape:version="0.48.4 r9939"
   sodipodi:docname="brush.svg"><metadata
     id="metadata53"><rdf:RDF><cc:Work
         rdf:about=""><dc:format>image/svg+xml</dc:format><dc:type
           rdf:resource="http://purl.org/dc/dcmitype/StillImage" /></cc:Work></rdf:RDF></metadata><defs
     id="defs51" /><sodipodi:namedview
     pagecolor="#ffffff"
     bordercolor="#666666"
     borderopacity="1"
     objecttolerance="10"
     gridtolerance="10"
     guidetolerance="10"
     inkscape:pageopacity="0"
     inkscape:pageshadow="2"
     inkscape:window-width="1920"
     inkscape:window-height="1028"
     id="namedview49"
     showgrid="false"
     inkscape:zoom="0.53427149"
     inkscape:cx="220.86114"
     inkscape:cy="211.7255"
     inkscape:window-x="0"
     inkscape:window-y="0"
     inkscape:window-maximized="1"
     inkscape:current-layer="Capa_1"
     fit-margin-top="0"
     fit-margin-left="0"
     fit-margin-right="0"
     fit-margin-bottom="0" /><g
     id="g3"
     style="fill:#ff9955"
     transform="translate(-3.5602932e-4,-9.1341304)"><g
       id="g5"
       style="fill:#ff9955"><path
         d="m 288.862,251.877 37.306,17.657 c 5.313,2.513 9.529,6.6 12.303,11.649 22.201,-22.422 46.229,-57.663 66.391,-99.959 38.784,-81.371 48.522,-157.614 21.736,-170.29 -26.789,-12.682 -79.94,43.008 -118.732,124.378 -20.145,42.281 -32.38,83.088 -35.794,114.396 1.627,-0.292 3.274,-0.509 4.953,-0.509 4.123,0.009 8.103,0.906 11.837,2.678 z"
         id="path7"
         style="fill:#ff9955"
         inkscape:connector-curvature="0" /><path
         d="m 255.673,321.559 37.306,17.652 c 2.736,1.299 5.626,1.911 8.479,1.911 6.483,0 12.595,-3.342 16.354,-8.916 -22.218,-15.404 -46.446,-27.078 -72.05,-35.558 -3.666,9.562 0.498,20.462 9.911,24.911 z"
         id="path9"
         style="fill:#ff9955"
         inkscape:connector-curvature="0" /><path
         d="m 260.687,265.959 c 3.522,1.167 6.977,2.433 10.435,3.735 18.07,6.801 35.298,15.457 52.065,25.082 3.302,1.904 6.6,3.819 9.874,5.791 1.494,-4.584 1.246,-9.369 -0.501,-13.609 -1.808,-4.376 -5.13,-8.15 -9.75,-10.335 l -37.306,-17.657 c -2.745,-1.294 -5.626,-1.915 -8.479,-1.915 -1.955,0 -3.871,0.324 -5.727,0.882 -4.292,1.302 -7.995,4.139 -10.611,8.026 z"
         id="path11"
         style="fill:#ff9955"
         inkscape:connector-curvature="0" /><path
         d="m 249.878,287.672 c 9.75,3.282 19.304,7.001 28.634,11.192 5.834,2.621 11.617,5.366 17.264,8.363 9.165,4.869 18.058,10.279 26.689,16.178 l 6.561,-13.77 c -4.949,-2.989 -9.959,-5.883 -14.988,-8.716 -13.585,-7.654 -27.499,-14.651 -41.974,-20.386 -5.274,-2.092 -10.64,-3.963 -16.065,-5.702 l -6.121,12.841 z"
         id="path13"
         style="fill:#ff9955"
         inkscape:connector-curvature="0" /><path
         d="m 54.416,262.609 c 56.659,-36.744 -9.027,-93.722 -31.747,-123.417 -9.086,-11.886 -29.564,-0.185 -20.33,11.884 21.047,27.517 80.401,69.737 26.407,99.435 -15.974,8.788 -26.549,24.794 -14.946,41.813 11.76,17.244 44.418,18.782 62.714,21.468 12.771,1.875 26.158,5.643 38.389,10.523 -4.959,2.225 -10.247,3.995 -15.316,5.887 -25.554,9.529 -82.507,32.248 -62.378,70.815 16.44,31.502 62.3,30.905 98.09,31.57 -0.433,-0.729 -0.785,-1.547 -1.026,-2.496 -1.948,-7.639 4.33,-11.971 19.522,-20.351 -22.96,-2.016 -45.987,-1.402 -68.801,-5.449 -45.891,-8.144 -16.437,-36.452 9.397,-47.012 13.619,-5.559 66.101,-17.54 48.304,-42.707 -10.726,-15.18 -39.409,-18.767 -55.433,-22.811 -11.021,-2.781 -22.81,-3.519 -33.977,-5.887 -26.368,-5.601 -15.408,-12.533 1.131,-23.265 z"
         id="path15"
         style="fill:#ff9955"
         inkscape:connector-curvature="0" /><path
         d="m 164.448,412.863 c -17.138,9.354 -31.402,16.911 -16.076,16.911 4.166,0 10.55,-0.564 19.626,-1.799 12.339,-1.68 29.679,-4.593 53.435,-9.057 131.199,-24.654 31.61,-89.174 31.61,-89.174 -6.676,-2.601 -13.048,-3.759 -18.995,-3.759 -32.506,0 -52.179,34.66 -36.485,58.877 4.631,7.162 -15.719,18.504 -33.115,28.001 z"
         id="path17"
         style="fill:#ff9955"
         inkscape:connector-curvature="0" /></g></g><g
     id="g19"
     transform="translate(-3.5602932e-4,-9.1341304)" /><g
     id="g21"
     transform="translate(-3.5602932e-4,-9.1341304)" /><g
     id="g23"
     transform="translate(-3.5602932e-4,-9.1341304)" /><g
     id="g25"
     transform="translate(-3.5602932e-4,-9.1341304)" /><g
     id="g27"
     transform="translate(-3.5602932e-4,-9.1341304)" /><g
     id="g29"
     transform="translate(-3.5602932e-4,-9.1341304)" /><g
     id="g31"
     transform="translate(-3.5602932e-4,-9.1341304)" /><g
     id="g33"
     transform="translate(-3.5602932e-4,-9.1341304)" /><g
     id="g35"
     transform="translate(-3.5602932e-4,-9.1341304)" /><g
     id="g37"
     transform="translate(-3.5602932e-4,-9.1341304)" /><g
     id="g39"
     transform="translate(-3.5602932e-4,-9.1341304)" /><g
     id="g41"
     transform="translate(-3.5602932e-4,-9.1341304)" /><g
     id="g43"
     transform="translate(-3.5602932e-4,-9.1341304)" /><g
     id="g45"
     transform="translate(-3.5602932e-4,-9.1341304)" /><g
     id="g47"
     transform="translate(-3.5602932e-4,-9.1341304)" /></svg>