<?xml version="1.0" encoding="UTF-8" standalone="no"?>
<!-- Generator: Adobe Illustrator 16.0.0, SVG Export Plug-In . SVG Version: 6.00 Build 0)  -->

<svg
   xmlns:dc="http://purl.org/dc/elements/1.1/"
   xmlns:cc="http://creativecommons.org/ns#"
   xmlns:rdf="http://www.w3.org/1999/02/22-rdf-syntax-ns#"
   xmlns:svg="http://www.w3.org/2000/svg"
   xmlns="http://www.w3.org/2000/svg"
   xmlns:sodipodi="http://sodipodi.sourceforge.net/DTD/sodipodi-0.dtd"
   xmlns:inkscape="http://www.inkscape.org/namespaces/inkscape"
   version="1.1"
   id="Capa_1"
   x="0px"
   y="0px"
   width="260.46387"
   height="236.10016"
   viewBox="0 0 260.46388 236.10017"
   xml:space="preserve"
   inkscape:version="0.48.4 r9939"
   sodipodi:docname="color.svg"><metadata
     id="metadata49"><rdf:RDF><cc:Work
         rdf:about=""><dc:format>image/svg+xml</dc:format><dc:type
           rdf:resource="http://purl.org/dc/dcmitype/StillImage" /></cc:Work></rdf:RDF></metadata><defs
     id="defs47" /><sodipodi:namedview
     pagecolor="#ffffff"
     bordercolor="#666666"
     borderopacity="1"
     objecttolerance="10"
     gridtolerance="10"
     guidetolerance="10"
     inkscape:pageopacity="0"
     inkscape:pageshadow="2"
     inkscape:window-width="1920"
     inkscape:window-height="1028"
     id="namedview45"
     showgrid="false"
     inkscape:zoom="0.90607535"
     inkscape:cx="130.23219"
     inkscape:cy="118.05016"
     inkscape:window-x="0"
     inkscape:window-y="0"
     inkscape:window-maximized="1"
     inkscape:current-layer="Capa_1"
     fit-margin-top="0"
     fit-margin-left="0"
     fit-margin-right="0"
     fit-margin-bottom="0" /><g
     id="g3"
     style="fill:#ff9955"
     transform="translate(2.0085456e-4,-12.182)"><g
       id="g5"
       style="fill:#ff9955"><path
         d="m 207.854,139.263 c -2.01,2.714 -4.376,5.038 -6.929,6.908 -5.861,7.85 -14.24,11.92 -21.67,9.476 -10.264,-3.355 -14.769,-17.72 -10.062,-32.094 1.476,-4.51 3.743,-8.399 6.395,-11.623 l 17.368,-40.801 0,0 7.166,-16.823 C 178.587,32.433 145.11,19.162 99.69,26.409 0.059,42.305 -30.676,164.195 33.978,221.43 c 60.503,53.567 92.24,17.077 115.171,-23.441 2.595,-4.583 8.746,-7.271 13.981,-6.711 16.684,1.771 50.844,-0.099 62.687,-41.922 3.313,-11.719 4.06,-24.591 2.31,-37.482 l -20.273,27.389 z M 58.887,86.819 c 11.418,0 20.668,9.253 20.668,20.664 0,11.415 -9.25,20.668 -20.668,20.668 -11.415,0 -20.668,-9.253 -20.668,-20.668 0,-11.411 9.253,-20.664 20.668,-20.664 z m -11.925,94.594 c -11.41,0 -20.668,-9.253 -20.668,-20.661 0,-11.412 9.253,-20.671 20.668,-20.671 11.418,0 20.669,9.253 20.669,20.671 0,11.408 -9.251,20.661 -20.669,20.661 z m 40.542,41.337 c -11.416,0 -20.668,-9.254 -20.668,-20.661 0,-11.417 9.253,-20.671 20.668,-20.671 11.417,0 20.668,9.254 20.668,20.671 0.001,11.407 -9.25,20.661 -20.668,20.661 z M 104.196,92.386 c -11.415,0 -20.668,-9.251 -20.668,-20.669 0,-11.41 9.253,-20.663 20.668,-20.663 11.413,0 20.671,9.253 20.671,20.663 0,11.418 -9.253,20.669 -20.671,20.669 z"
         id="path7"
         style="fill:#ff9955"
         inkscape:connector-curvature="0" /><path
         d="m 238.954,15.941 c -13.375,0.865 -23.416,13.82 -23.416,13.82 l 0.114,0.057 c -0.564,0.551 -1.113,1.139 -1.631,1.761 -9.108,10.853 -7.689,27.027 3.164,36.13 10.853,9.104 27.024,7.689 36.127,-3.166 3.299,-3.928 5.199,-8.567 5.789,-13.313 l 0.011,0.005 c 4.925,-23.314 -5.193,-39.053 -5.193,-39.053 0,0 -1.579,2.894 -14.965,3.759 z"
         id="path9"
         style="fill:#ff9955"
         inkscape:connector-curvature="0" /><path
         d="m 179.871,146.477 c 5.044,2.936 13.422,-0.487 18.72,-7.639 l 24.663,-33.323 c -11.49,-2.641 -21.784,-9.761 -28.412,-15.325 -0.616,-0.518 -1.201,-1.018 -1.75,-1.504 l -16.032,37.658 c -3.485,8.181 -2.227,17.201 2.811,20.133 z"
         id="path11"
         style="fill:#ff9955"
         inkscape:connector-curvature="0" /><path
         d="m 214.741,70.619 c -4.07,-3.415 -6.97,-7.697 -8.699,-12.353 l -7.363,17.3 c 6.504,6.475 20.77,17.738 33.761,17.551 l 13.453,-18.165 c -10.046,4.454 -22.189,3.194 -31.152,-4.333 z"
         id="path13"
         style="fill:#ff9955"
         inkscape:connector-curvature="0" /></g></g><g
     id="g15"
     transform="translate(2.0085456e-4,-12.182)" /><g
     id="g17"
     transform="translate(2.0085456e-4,-12.182)" /><g
     id="g19"
     transform="translate(2.0085456e-4,-12.182)" /><g
     id="g21"
     transform="translate(2.0085456e-4,-12.182)" /><g
     id="g23"
     transform="translate(2.0085456e-4,-12.182)" /><g
     id="g25"
     transform="translate(2.0085456e-4,-12.182)" /><g
     id="g27"
     transform="translate(2.0085456e-4,-12.182)" /><g
     id="g29"
     transform="translate(2.0085456e-4,-12.182)" /><g
     id="g31"
     transform="translate(2.0085456e-4,-12.182)" /><g
     id="g33"
     transform="translate(2.0085456e-4,-12.182)" /><g
     id="g35"
     transform="translate(2.0085456e-4,-12.182)" /><g
     id="g37"
     transform="translate(2.0085456e-4,-12.182)" /><g
     id="g39"
     transform="translate(2.0085456e-4,-12.182)" /><g
     id="g41"
     transform="translate(2.0085456e-4,-12.182)" /><g
     id="g43"
     transform="translate(2.0085456e-4,-12.182)" /></svg>