<?xml version="1.0" encoding="UTF-8" standalone="no"?>
<!-- Generator: Adobe Illustrator 16.0.0, SVG Export Plug-In . SVG Version: 6.00 Build 0)  -->

<svg
   xmlns:dc="http://purl.org/dc/elements/1.1/"
   xmlns:cc="http://creativecommons.org/ns#"
   xmlns:rdf="http://www.w3.org/1999/02/22-rdf-syntax-ns#"
   xmlns:svg="http://www.w3.org/2000/svg"
   xmlns="http://www.w3.org/2000/svg"
   xmlns:sodipodi="http://sodipodi.sourceforge.net/DTD/sodipodi-0.dtd"
   xmlns:inkscape="http://www.inkscape.org/namespaces/inkscape"
   version="1.1"
   id="Capa_1"
   x="0px"
   y="0px"
   width="79.993622"
   height="67.472"
   viewBox="0 0 79.993626 67.472003"
   xml:space="preserve"
   inkscape:version="0.48.4 r9939"
   sodipodi:docname="filter.svg"><metadata
     id="metadata41"><rdf:RDF><cc:Work
         rdf:about=""><dc:format>image/svg+xml</dc:format><dc:type
           rdf:resource="http://purl.org/dc/dcmitype/StillImage" /></cc:Work></rdf:RDF></metadata><defs
     id="defs39" /><sodipodi:namedview
     pagecolor="#ffffff"
     bordercolor="#666666"
     borderopacity="1"
     objecttolerance="10"
     gridtolerance="10"
     guidetolerance="10"
     inkscape:pageopacity="0"
     inkscape:pageshadow="2"
     inkscape:window-width="1920"
     inkscape:window-height="1028"
     id="namedview37"
     showgrid="false"
     inkscape:zoom="2.9502583"
     inkscape:cx="39.996498"
     inkscape:cy="33.736498"
     inkscape:window-x="0"
     inkscape:window-y="0"
     inkscape:window-maximized="1"
     inkscape:current-layer="Capa_1"
     fit-margin-top="0"
     fit-margin-left="0"
     fit-margin-right="0"
     fit-margin-bottom="0" /><g
     id="g3"
     style="fill:#ff9955"
     transform="translate(0,-6.261)"><path
       d="M 60.122,21.33 V 10.104 h 0.26 c 1.056,0 1.909,-0.854 1.909,-1.908 0,-1.055 -0.854,-1.908 -1.909,-1.908 h -0.26 V 6.261 H 2.289 V 6.289 H 1.907 C 0.854,6.289 0,7.143 0,8.197 0,9.251 0.854,10.105 1.907,10.105 H 2.289 V 73.733 H 60.122 V 41.417 c 4.677,1.543 9.112,2.486 12.603,2.486 3.396,0 5.903,-0.881 6.877,-2.928 C 82.143,35.63 71.934,27.226 60.122,21.33 z M 57.23,70.841 H 5.18 V 20.502 c 0.813,0.376 1.835,0.864 3.013,1.125 v 19.936 c 0,0.864 0.7,1.566 1.567,1.566 0.864,0 1.564,-0.702 1.564,-1.566 V 21.606 c 0.303,-1.007 -0.06,-3.417 3.014,-1.611 5.356,3.148 3.555,-4.035 4.097,-2.817 v 16.687 c 0,0.864 0.7,1.566 1.566,1.566 0.865,0 1.565,-0.702 1.565,-1.566 V 15.832 c -0.481,-1.137 1.438,-1.663 3.321,-1.084 1.884,0.578 3.14,2.138 3.14,2.138 l 0.01,-0.006 c -0.094,0.292 -0.159,0.599 -0.159,0.922 0,1.112 0.614,2.073 1.515,2.588 0.565,2.015 2.256,4.332 5.037,6.861 3.934,3.579 9.657,7.241 16.116,10.313 2.205,1.048 4.454,1.994 6.685,2.831 v 30.446 z m 0,-33.534 C 55.488,36.625 53.671,35.85 51.789,34.953 45.581,32 40.105,28.505 36.375,25.111 c -2.194,-1.995 -3.379,-3.592 -3.921,-4.776 0.846,-0.529 1.412,-1.462 1.412,-2.533 0,-1.642 -1.322,-2.972 -2.963,-2.99 L 34.821,9.153 H 57.23 v 28.154 z m 19.761,2.425 C 76.095,41.61 69.51,41.586 60.122,38.364 V 24.572 c 11.868,6.17 17.929,12.933 16.869,15.16 z"
       id="path5"
       style="fill:#ff9955"
       inkscape:connector-curvature="0" /></g><g
     id="g7"
     transform="translate(0,-6.261)" /><g
     id="g9"
     transform="translate(0,-6.261)" /><g
     id="g11"
     transform="translate(0,-6.261)" /><g
     id="g13"
     transform="translate(0,-6.261)" /><g
     id="g15"
     transform="translate(0,-6.261)" /><g
     id="g17"
     transform="translate(0,-6.261)" /><g
     id="g19"
     transform="translate(0,-6.261)" /><g
     id="g21"
     transform="translate(0,-6.261)" /><g
     id="g23"
     transform="translate(0,-6.261)" /><g
     id="g25"
     transform="translate(0,-6.261)" /><g
     id="g27"
     transform="translate(0,-6.261)" /><g
     id="g29"
     transform="translate(0,-6.261)" /><g
     id="g31"
     transform="translate(0,-6.261)" /><g
     id="g33"
     transform="translate(0,-6.261)" /><g
     id="g35"
     transform="translate(0,-6.261)" /></svg>