<?xml version="1.0" encoding="UTF-8" standalone="no"?>
<!-- Generator: Adobe Illustrator 16.0.0, SVG Export Plug-In . SVG Version: 6.00 Build 0)  -->

<svg
   xmlns:dc="http://purl.org/dc/elements/1.1/"
   xmlns:cc="http://creativecommons.org/ns#"
   xmlns:rdf="http://www.w3.org/1999/02/22-rdf-syntax-ns#"
   xmlns:svg="http://www.w3.org/2000/svg"
   xmlns="http://www.w3.org/2000/svg"
   xmlns:sodipodi="http://sodipodi.sourceforge.net/DTD/sodipodi-0.dtd"
   xmlns:inkscape="http://www.inkscape.org/namespaces/inkscape"
   version="1.1"
   id="Capa_1"
   x="0px"
   y="0px"
   width="44.999454"
   height="35"
   viewBox="0 0 44.999454 35"
   xml:space="preserve"
   inkscape:version="0.48.4 r9939"
   sodipodi:docname="openFile.svg"><metadata
     id="metadata41"><rdf:RDF><cc:Work
         rdf:about=""><dc:format>image/svg+xml</dc:format><dc:type
           rdf:resource="http://purl.org/dc/dcmitype/StillImage" /></cc:Work></rdf:RDF></metadata><defs
     id="defs39" /><sodipodi:namedview
     pagecolor="#ffffff"
     bordercolor="#666666"
     borderopacity="1"
     objecttolerance="10"
     gridtolerance="10"
     guidetolerance="10"
     inkscape:pageopacity="0"
     inkscape:pageshadow="2"
     inkscape:window-width="1920"
     inkscape:window-height="1028"
     id="namedview37"
     showgrid="false"
     inkscape:zoom="5.2444444"
     inkscape:cx="22.5"
     inkscape:cy="17.5"
     inkscape:window-x="0"
     inkscape:window-y="0"
     inkscape:window-maximized="1"
     inkscape:current-layer="Capa_1"
     fit-margin-top="0"
     fit-margin-left="0"
     fit-margin-right="0"
     fit-margin-bottom="0" /><g
     id="g3"
     style="fill:#ff9955"
     transform="translate(0,-5)"><path
       d="M 44.45,13.436 C 43.976,12.845 43.258,12.5 42.5,12.5 H 40 C 40,11.119 38.881,10 37.5,10 H 35 V 7.5 C 35,6.119 33.881,5 32.5,5 H 2.5 C 1.119,5 0,6.119 0,7.5 v 30 C 0,38.881 1.119,40 2.5,40 h 5 25 5 c 1.172,0 2.188,-0.814 2.439,-1.958 l 5,-22.5 c 0.166,-0.74 -0.014,-1.515 -0.489,-2.106 z M 2.5,7.5 h 30 V 10 H 30 c -1.381,0 -2.5,1.119 -2.5,2.5 h -15 c -1.172,0 -2.186,0.814 -2.44,1.958 0,0 -5.058,22.862 -5.058,23.042 H 2.5 v -30 l 0,0 z"
       id="path5"
       style="fill:#ff9955"
       inkscape:connector-curvature="0" /></g><g
     id="g7"
     transform="translate(0,-5)" /><g
     id="g9"
     transform="translate(0,-5)" /><g
     id="g11"
     transform="translate(0,-5)" /><g
     id="g13"
     transform="translate(0,-5)" /><g
     id="g15"
     transform="translate(0,-5)" /><g
     id="g17"
     transform="translate(0,-5)" /><g
     id="g19"
     transform="translate(0,-5)" /><g
     id="g21"
     transform="translate(0,-5)" /><g
     id="g23"
     transform="translate(0,-5)" /><g
     id="g25"
     transform="translate(0,-5)" /><g
     id="g27"
     transform="translate(0,-5)" /><g
     id="g29"
     transform="translate(0,-5)" /><g
     id="g31"
     transform="translate(0,-5)" /><g
     id="g33"
     transform="translate(0,-5)" /><g
     id="g35"
     transform="translate(0,-5)" /></svg>