<?xml version="1.0" encoding="UTF-8" standalone="no"?>
<!-- Generator: Adobe Illustrator 18.1.1, SVG Export Plug-In . SVG Version: 6.00 Build 0)  -->

<svg
   xmlns:dc="http://purl.org/dc/elements/1.1/"
   xmlns:cc="http://creativecommons.org/ns#"
   xmlns:rdf="http://www.w3.org/1999/02/22-rdf-syntax-ns#"
   xmlns:svg="http://www.w3.org/2000/svg"
   xmlns="http://www.w3.org/2000/svg"
   xmlns:sodipodi="http://sodipodi.sourceforge.net/DTD/sodipodi-0.dtd"
   xmlns:inkscape="http://www.inkscape.org/namespaces/inkscape"
   version="1.1"
   id="Capa_1"
   x="0px"
   y="0px"
   viewBox="0 0 251.996 267.745"
   xml:space="preserve"
   inkscape:version="0.48.4 r9939"
   width="100%"
   height="100%"
   sodipodi:docname="saveFile.svg"><metadata
     id="metadata49"><rdf:RDF><cc:Work
         rdf:about=""><dc:format>image/svg+xml</dc:format><dc:type
           rdf:resource="http://purl.org/dc/dcmitype/StillImage" /></cc:Work></rdf:RDF></metadata><defs
     id="defs47" /><sodipodi:namedview
     pagecolor="#ffffff"
     bordercolor="#666666"
     borderopacity="1"
     objecttolerance="10"
     gridtolerance="10"
     guidetolerance="10"
     inkscape:pageopacity="0"
     inkscape:pageshadow="2"
     inkscape:window-width="1920"
     inkscape:window-height="1028"
     id="namedview45"
     showgrid="false"
     fit-margin-top="0"
     fit-margin-left="0"
     fit-margin-right="0"
     fit-margin-bottom="0"
     inkscape:zoom="0.88143569"
     inkscape:cx="125.9975"
     inkscape:cy="133.8725"
     inkscape:window-x="0"
     inkscape:window-y="0"
     inkscape:window-maximized="1"
     inkscape:current-layer="Capa_1" /><g
     id="g3"
     style="fill:#ff9955"
     transform="translate(-7.875,0)"><path
       style="fill:#ff9955"
       d="m 218.266,0 v 67.921 c 0,10.77 -8.82,19.59 -19.6,19.59 H 68.057 c -10.77,0 -19.579,-8.82 -19.579,-19.59 V 0.02 h -16.71 l 0,0 C 18.614,0.02 7.875,11.437 7.875,25.398 v 219.263 c 0,12.699 9.769,23.084 21.721,23.084 H 238.15 c 11.951,0 21.721,-10.385 21.721,-23.075 V 50.969 L 218.266,0 z m 3.274,231.295 c 0,9.406 -7.688,17.084 -17.084,17.084 H 66.219 c -9.396,0 -17.074,-7.678 -17.074,-17.084 v -71.194 c 0,-9.406 7.678,-17.085 17.074,-17.085 h 138.237 c 9.396,0 17.084,7.679 17.084,17.085 v 71.194 z"
       id="path5"
       inkscape:connector-curvature="0" /><path
       style="fill:#ff9955"
       d="M 202.989,171.516 H 67.665 c -0.799,0 -1.447,0.648 -1.447,1.447 v 3.521 c 0,0.799 0.648,1.447 1.447,1.447 h 135.324 c 0.799,0 1.446,-0.648 1.446,-1.447 v -3.521 c 0,-0.799 -0.647,-1.447 -1.446,-1.447 z"
       id="path7"
       inkscape:connector-curvature="0" /><path
       style="fill:#ff9955"
       d="M 202.989,184.348 H 67.665 c -0.799,0 -1.447,0.646 -1.447,1.446 v 3.521 c 0,0.8 0.648,1.446 1.447,1.446 h 135.324 c 0.799,0 1.446,-0.646 1.446,-1.446 v -3.521 c 0,-0.8 -0.647,-1.446 -1.446,-1.446 z"
       id="path9"
       inkscape:connector-curvature="0" /><path
       style="fill:#ff9955"
       d="M 202.989,197.178 H 67.665 c -0.799,0 -1.447,0.648 -1.447,1.447 v 3.521 c 0,0.799 0.648,1.447 1.447,1.447 h 135.324 c 0.799,0 1.446,-0.648 1.446,-1.447 v -3.521 c 0,-0.799 -0.647,-1.447 -1.446,-1.447 z"
       id="path11"
       inkscape:connector-curvature="0" /><path
       style="fill:#ff9955"
       d="m 179.708,70.294 h 20.322 c 1.979,0 3.598,-1.616 3.598,-3.594 V 0.031 h -27.492 v 66.692 c 0,1.966 1.61,3.571 3.572,3.571 z"
       id="path13"
       inkscape:connector-curvature="0" /></g><g
     id="g15"
     transform="translate(-7.875,0)" /><g
     id="g17"
     transform="translate(-7.875,0)" /><g
     id="g19"
     transform="translate(-7.875,0)" /><g
     id="g21"
     transform="translate(-7.875,0)" /><g
     id="g23"
     transform="translate(-7.875,0)" /><g
     id="g25"
     transform="translate(-7.875,0)" /><g
     id="g27"
     transform="translate(-7.875,0)" /><g
     id="g29"
     transform="translate(-7.875,0)" /><g
     id="g31"
     transform="translate(-7.875,0)" /><g
     id="g33"
     transform="translate(-7.875,0)" /><g
     id="g35"
     transform="translate(-7.875,0)" /><g
     id="g37"
     transform="translate(-7.875,0)" /><g
     id="g39"
     transform="translate(-7.875,0)" /><g
     id="g41"
     transform="translate(-7.875,0)" /><g
     id="g43"
     transform="translate(-7.875,0)" /></svg>